<?xml version="1.0" encoding="UTF-8" standalone="no"?>
<svg
   xmlns:dc="http://purl.org/dc/elements/1.1/"
   xmlns:cc="http://creativecommons.org/ns#"
   xmlns:rdf="http://www.w3.org/1999/02/22-rdf-syntax-ns#"
   xmlns:svg="http://www.w3.org/2000/svg"
   xmlns="http://www.w3.org/2000/svg"
   xmlns:sodipodi="http://sodipodi.sourceforge.net/DTD/sodipodi-0.dtd"
   xmlns:inkscape="http://www.inkscape.org/namespaces/inkscape"
   width="793.700787402"
   height="1122.51968504"
   version="1.1"
   id="svg1099"
   sodipodi:docname="finalMeasure.svg"
   inkscape:version="0.92.4 (unknown)">
  <metadata
     id="metadata1103">
    <rdf:RDF>
      <cc:Work
         rdf:about="">
        <dc:format>image/svg+xml</dc:format>
        <dc:type
           rdf:resource="http://purl.org/dc/dcmitype/StillImage" />
        <dc:title></dc:title>
      </cc:Work>
    </rdf:RDF>
  </metadata>
  <sodipodi:namedview
     pagecolor="#ffffff"
     bordercolor="#666666"
     borderopacity="1"
     objecttolerance="10"
     gridtolerance="10"
     guidetolerance="10"
     inkscape:pageopacity="0"
     inkscape:pageshadow="2"
     inkscape:window-width="1366"
     inkscape:window-height="713"
     id="namedview1101"
     showgrid="false"
     inkscape:zoom="0.51717105"
     inkscape:cx="529.28005"
     inkscape:cy="468.54881"
     inkscape:window-x="0"
     inkscape:window-y="27"
     inkscape:window-maximized="1"
     inkscape:current-layer="g1097"
     inkscape:snap-page="true"
     inkscape:lockguides="false" />
  <desc
     id="desc815">E:\hhhinge.dxf - scale = 1.000000, origin = (0.000000, 0.000000), method = file</desc>
  <defs
     id="defs829">
    <marker
       id="DistanceX"
       orient="auto"
       refX="0.0"
       refY="0.0"
       style="overflow:visible">
      <path
         d="M 3,-3 L -3,3 M 0,-5 L  0,5"
         style="stroke:#000000; stroke-width:0.5"
         id="path817" />
    </marker>
    <pattern
       height="8"
       id="Hatch"
       patternUnits="userSpaceOnUse"
       width="8"
       x="0"
       y="0">
      <path
         d="M8 4 l-4,4"
         linecap="square"
         stroke="#000000"
         stroke-width="0.25"
         id="path820" />
      <path
         d="M6 2 l-4,4"
         linecap="square"
         stroke="#000000"
         stroke-width="0.25"
         id="path822" />
      <path
         d="M4 0 l-4,4"
         linecap="square"
         stroke="#000000"
         stroke-width="0.25"
         id="path824" />
    </pattern>
    <symbol
       id="*MODEL_SPACE" />
    <symbol
       id="*PAPER_SPACE" />
  </defs>
  <g
     inkscape:groupmode="layer"
     inkscape:label="0"
     id="g831" />
  <g
     inkscape:groupmode="layer"
     inkscape:label="Layer_1"
     id="g1097">
    <path
       d="M -390.24039,292.97315 H 1430.4127"
       style="fill:none;stroke:#000000;stroke-width:0.92752016"
       id="path833"
       inkscape:connector-curvature="0" />
    <path
       d="m 1430.4127,292.39477 v 590.6221"
       style="fill:none;stroke:#000000"
       id="path835"
       inkscape:connector-curvature="0" />
    <path
       d="M 1430.4126,883.01686 H -391.06822"
       style="fill:none;stroke:#000000;stroke-width:0.92752016"
       id="path837"
       inkscape:connector-curvature="0" />
    <path
       d="m -57.308765,292.39477 v 41.45227"
       style="fill:none;stroke:#000000"
       id="path839"
       inkscape:connector-curvature="0" />
    <path
       d="m -57.308765,840.72308 v 41.45227"
       style="fill:none;stroke:#000000"
       id="path853"
       inkscape:connector-curvature="0" />
    <path
       d="m 253.42255,292.39477 v 41.45227"
       style="fill:none;stroke:#000000"
       id="path967"
       inkscape:connector-curvature="0" />
    <path
       d="m 253.42255,840.72308 v 41.45227"
       style="fill:none;stroke:#000000"
       id="path981"
       inkscape:connector-curvature="0" />
    <path
       d="m -389.24849,292.46679 v 591.0196"
       style="fill:none;stroke:#000000;stroke-width:0.92752016"
       id="path1095"
       inkscape:connector-curvature="0" />
    <path
       id="path1131"
       style="stroke:#000000;stroke-width:0.377952755913;fill:none"
       d="M -57.308765, 292.39478 L -57.308765, 333.84704865 M -57.308765, 343.295867548 L -57.308765, 416.75158595 M -57.308765, 426.200404848 L -57.308765, 499.656123251 M -57.308765, 509.104942149 L -57.308765, 582.560660551 M -57.308765, 592.009479449 L -57.308765, 665.465197851 M -57.308765, 674.914016749 L -57.308765, 748.369735152 M -57.308765, 757.81855405 L -57.308765, 831.274272452 M -57.308765, 840.72309135 L -57.308765, 882.17536 M -42.5120354762, 292.39478 L -42.5120354762, 333.84704865 M -42.5120354762, 343.295867548 L -42.5120354762, 416.75158595 M -42.5120354762, 426.200404848 L -42.5120354762, 499.656123251 M -42.5120354762, 509.104942149 L -42.5120354762, 582.560660551 M -42.5120354762, 592.009479449 L -42.5120354762, 665.465197851 M -42.5120354762, 674.914016749 L -42.5120354762, 748.369735152 M -42.5120354762, 757.81855405 L -42.5120354762, 831.274272452 M -42.5120354762, 840.72309135 L -42.5120354762, 882.17536 M -27.7153059524, 292.39478 L -27.7153059524, 333.84704865 M -27.7153059524, 343.295867548 L -27.7153059524, 416.75158595 M -27.7153059524, 426.200404848 L -27.7153059524, 499.656123251 M -27.7153059524, 509.104942149 L -27.7153059524, 582.560660551 M -27.7153059524, 592.009479449 L -27.7153059524, 665.465197851 M -27.7153059524, 674.914016749 L -27.7153059524, 748.369735152 M -27.7153059524, 757.81855405 L -27.7153059524, 831.274272452 M -27.7153059524, 840.72309135 L -27.7153059524, 882.17536 M -12.9185764286, 292.39478 L -12.9185764286, 333.84704865 M -12.9185764286, 343.295867548 L -12.9185764286, 416.75158595 M -12.9185764286, 426.200404848 L -12.9185764286, 499.656123251 M -12.9185764286, 509.104942149 L -12.9185764286, 582.560660551 M -12.9185764286, 592.009479449 L -12.9185764286, 665.465197851 M -12.9185764286, 674.914016749 L -12.9185764286, 748.369735152 M -12.9185764286, 757.81855405 L -12.9185764286, 831.274272452 M -12.9185764286, 840.72309135 L -12.9185764286, 882.17536 M 1.87815309524, 292.39478 L 1.87815309524, 333.84704865 M 1.87815309524, 343.295867548 L 1.87815309524, 416.75158595 M 1.87815309524, 426.200404848 L 1.87815309524, 499.656123251 M 1.87815309524, 509.104942149 L 1.87815309524, 582.560660551 M 1.87815309524, 592.009479449 L 1.87815309524, 665.465197851 M 1.87815309524, 674.914016749 L 1.87815309524, 748.369735152 M 1.87815309524, 757.81855405 L 1.87815309524, 831.274272452 M 1.87815309524, 840.72309135 L 1.87815309524, 882.17536 M 16.674882619, 292.39478 L 16.674882619, 333.84704865 M 16.674882619, 343.295867548 L 16.674882619, 416.75158595 M 16.674882619, 426.200404848 L 16.674882619, 499.656123251 M 16.674882619, 509.104942149 L 16.674882619, 582.560660551 M 16.674882619, 592.009479449 L 16.674882619, 665.465197851 M 16.674882619, 674.914016749 L 16.674882619, 748.369735152 M 16.674882619, 757.81855405 L 16.674882619, 831.274272452 M 16.674882619, 840.72309135 L 16.674882619, 882.17536 M 31.4716121429, 292.39478 L 31.4716121429, 333.84704865 M 31.4716121429, 343.295867548 L 31.4716121429, 416.75158595 M 31.4716121429, 426.200404848 L 31.4716121429, 499.656123251 M 31.4716121429, 509.104942149 L 31.4716121429, 582.560660551 M 31.4716121429, 592.009479449 L 31.4716121429, 665.465197851 M 31.4716121429, 674.914016749 L 31.4716121429, 748.369735152 M 31.4716121429, 757.81855405 L 31.4716121429, 831.274272452 M 31.4716121429, 840.72309135 L 31.4716121429, 882.17536 M 46.2683416667, 292.39478 L 46.2683416667, 333.84704865 M 46.2683416667, 343.295867548 L 46.2683416667, 416.75158595 M 46.2683416667, 426.200404848 L 46.2683416667, 499.656123251 M 46.2683416667, 509.104942149 L 46.2683416667, 582.560660551 M 46.2683416667, 592.009479449 L 46.2683416667, 665.465197851 M 46.2683416667, 674.914016749 L 46.2683416667, 748.369735152 M 46.2683416667, 757.81855405 L 46.2683416667, 831.274272452 M 46.2683416667, 840.72309135 L 46.2683416667, 882.17536 M 61.0650711905, 292.39478 L 61.0650711905, 333.84704865 M 61.0650711905, 343.295867548 L 61.0650711905, 416.75158595 M 61.0650711905, 426.200404848 L 61.0650711905, 499.656123251 M 61.0650711905, 509.104942149 L 61.0650711905, 582.560660551 M 61.0650711905, 592.009479449 L 61.0650711905, 665.465197851 M 61.0650711905, 674.914016749 L 61.0650711905, 748.369735152 M 61.0650711905, 757.81855405 L 61.0650711905, 831.274272452 M 61.0650711905, 840.72309135 L 61.0650711905, 882.17536 M 75.8618007143, 292.39478 L 75.8618007143, 333.84704865 M 75.8618007143, 343.295867548 L 75.8618007143, 416.75158595 M 75.8618007143, 426.200404848 L 75.8618007143, 499.656123251 M 75.8618007143, 509.104942149 L 75.8618007143, 582.560660551 M 75.8618007143, 592.009479449 L 75.8618007143, 665.465197851 M 75.8618007143, 674.914016749 L 75.8618007143, 748.369735152 M 75.8618007143, 757.81855405 L 75.8618007143, 831.274272452 M 75.8618007143, 840.72309135 L 75.8618007143, 882.17536 M 90.6585302381, 292.39478 L 90.6585302381, 333.84704865 M 90.6585302381, 343.295867548 L 90.6585302381, 416.75158595 M 90.6585302381, 426.200404848 L 90.6585302381, 499.656123251 M 90.6585302381, 509.104942149 L 90.6585302381, 582.560660551 M 90.6585302381, 592.009479449 L 90.6585302381, 665.465197851 M 90.6585302381, 674.914016749 L 90.6585302381, 748.369735152 M 90.6585302381, 757.81855405 L 90.6585302381, 831.274272452 M 90.6585302381, 840.72309135 L 90.6585302381, 882.17536 M 105.455259762, 292.39478 L 105.455259762, 333.84704865 M 105.455259762, 343.295867548 L 105.455259762, 416.75158595 M 105.455259762, 426.200404848 L 105.455259762, 499.656123251 M 105.455259762, 509.104942149 L 105.455259762, 582.560660551 M 105.455259762, 592.009479449 L 105.455259762, 665.465197851 M 105.455259762, 674.914016749 L 105.455259762, 748.369735152 M 105.455259762, 757.81855405 L 105.455259762, 831.274272452 M 105.455259762, 840.72309135 L 105.455259762, 882.17536 M 120.251989286, 292.39478 L 120.251989286, 333.84704865 M 120.251989286, 343.295867548 L 120.251989286, 416.75158595 M 120.251989286, 426.200404848 L 120.251989286, 499.656123251 M 120.251989286, 509.104942149 L 120.251989286, 582.560660551 M 120.251989286, 592.009479449 L 120.251989286, 665.465197851 M 120.251989286, 674.914016749 L 120.251989286, 748.369735152 M 120.251989286, 757.81855405 L 120.251989286, 831.274272452 M 120.251989286, 840.72309135 L 120.251989286, 882.17536 M 135.04871881, 292.39478 L 135.04871881, 333.84704865 M 135.04871881, 343.295867548 L 135.04871881, 416.75158595 M 135.04871881, 426.200404848 L 135.04871881, 499.656123251 M 135.04871881, 509.104942149 L 135.04871881, 582.560660551 M 135.04871881, 592.009479449 L 135.04871881, 665.465197851 M 135.04871881, 674.914016749 L 135.04871881, 748.369735152 M 135.04871881, 757.81855405 L 135.04871881, 831.274272452 M 135.04871881, 840.72309135 L 135.04871881, 882.17536 M 149.845448333, 292.39478 L 149.845448333, 333.84704865 M 149.845448333, 343.295867548 L 149.845448333, 416.75158595 M 149.845448333, 426.200404848 L 149.845448333, 499.656123251 M 149.845448333, 509.104942149 L 149.845448333, 582.560660551 M 149.845448333, 592.009479449 L 149.845448333, 665.465197851 M 149.845448333, 674.914016749 L 149.845448333, 748.369735152 M 149.845448333, 757.81855405 L 149.845448333, 831.274272452 M 149.845448333, 840.72309135 L 149.845448333, 882.17536 M 164.642177857, 292.39478 L 164.642177857, 333.84704865 M 164.642177857, 343.295867548 L 164.642177857, 416.75158595 M 164.642177857, 426.200404848 L 164.642177857, 499.656123251 M 164.642177857, 509.104942149 L 164.642177857, 582.560660551 M 164.642177857, 592.009479449 L 164.642177857, 665.465197851 M 164.642177857, 674.914016749 L 164.642177857, 748.369735152 M 164.642177857, 757.81855405 L 164.642177857, 831.274272452 M 164.642177857, 840.72309135 L 164.642177857, 882.17536 M 179.438907381, 292.39478 L 179.438907381, 333.84704865 M 179.438907381, 343.295867548 L 179.438907381, 416.75158595 M 179.438907381, 426.200404848 L 179.438907381, 499.656123251 M 179.438907381, 509.104942149 L 179.438907381, 582.560660551 M 179.438907381, 592.009479449 L 179.438907381, 665.465197851 M 179.438907381, 674.914016749 L 179.438907381, 748.369735152 M 179.438907381, 757.81855405 L 179.438907381, 831.274272452 M 179.438907381, 840.72309135 L 179.438907381, 882.17536 M 194.235636905, 292.39478 L 194.235636905, 333.84704865 M 194.235636905, 343.295867548 L 194.235636905, 416.75158595 M 194.235636905, 426.200404848 L 194.235636905, 499.656123251 M 194.235636905, 509.104942149 L 194.235636905, 582.560660551 M 194.235636905, 592.009479449 L 194.235636905, 665.465197851 M 194.235636905, 674.914016749 L 194.235636905, 748.369735152 M 194.235636905, 757.81855405 L 194.235636905, 831.274272452 M 194.235636905, 840.72309135 L 194.235636905, 882.17536 M 209.032366429, 292.39478 L 209.032366429, 333.84704865 M 209.032366429, 343.295867548 L 209.032366429, 416.75158595 M 209.032366429, 426.200404848 L 209.032366429, 499.656123251 M 209.032366429, 509.104942149 L 209.032366429, 582.560660551 M 209.032366429, 592.009479449 L 209.032366429, 665.465197851 M 209.032366429, 674.914016749 L 209.032366429, 748.369735152 M 209.032366429, 757.81855405 L 209.032366429, 831.274272452 M 209.032366429, 840.72309135 L 209.032366429, 882.17536 M 223.829095952, 292.39478 L 223.829095952, 333.84704865 M 223.829095952, 343.295867548 L 223.829095952, 416.75158595 M 223.829095952, 426.200404848 L 223.829095952, 499.656123251 M 223.829095952, 509.104942149 L 223.829095952, 582.560660551 M 223.829095952, 592.009479449 L 223.829095952, 665.465197851 M 223.829095952, 674.914016749 L 223.829095952, 748.369735152 M 223.829095952, 757.81855405 L 223.829095952, 831.274272452 M 223.829095952, 840.72309135 L 223.829095952, 882.17536 M 238.625825476, 292.39478 L 238.625825476, 333.84704865 M 238.625825476, 343.295867548 L 238.625825476, 416.75158595 M 238.625825476, 426.200404848 L 238.625825476, 499.656123251 M 238.625825476, 509.104942149 L 238.625825476, 582.560660551 M 238.625825476, 592.009479449 L 238.625825476, 665.465197851 M 238.625825476, 674.914016749 L 238.625825476, 748.369735152 M 238.625825476, 757.81855405 L 238.625825476, 831.274272452 M 238.625825476, 840.72309135 L 238.625825476, 882.17536 M 253.422555, 292.39478 L 253.422555, 333.84704865 M 253.422555, 343.295867548 L 253.422555, 416.75158595 M 253.422555, 426.200404848 L 253.422555, 499.656123251 M 253.422555, 509.104942149 L 253.422555, 582.560660551 M 253.422555, 592.009479449 L 253.422555, 665.465197851 M 253.422555, 674.914016749 L 253.422555, 748.369735152 M 253.422555, 757.81855405 L 253.422555, 831.274272452 M 253.422555, 840.72309135 L 253.422555, 882.17536 M -49.9104002381, 301.843598898 L -49.9104002381, 375.2993173 M -49.9104002381, 384.748136198 L -49.9104002381, 458.203854601 M -49.9104002381, 467.652673498 L -49.9104002381, 541.108391901 M -49.9104002381, 550.557210799 L -49.9104002381, 624.012929201 M -49.9104002381, 633.461748099 L -49.9104002381, 706.917466502 M -49.9104002381, 716.366285399 L -49.9104002381, 789.822003802 M -49.9104002381, 799.2708227 L -49.9104002381, 872.726541102 M -35.1136707143, 301.843598898 L -35.1136707143, 375.2993173 M -35.1136707143, 384.748136198 L -35.1136707143, 458.203854601 M -35.1136707143, 467.652673498 L -35.1136707143, 541.108391901 M -35.1136707143, 550.557210799 L -35.1136707143, 624.012929201 M -35.1136707143, 633.461748099 L -35.1136707143, 706.917466502 M -35.1136707143, 716.366285399 L -35.1136707143, 789.822003802 M -35.1136707143, 799.2708227 L -35.1136707143, 872.726541102 M -20.3169411905, 301.843598898 L -20.3169411905, 375.2993173 M -20.3169411905, 384.748136198 L -20.3169411905, 458.203854601 M -20.3169411905, 467.652673498 L -20.3169411905, 541.108391901 M -20.3169411905, 550.557210799 L -20.3169411905, 624.012929201 M -20.3169411905, 633.461748099 L -20.3169411905, 706.917466502 M -20.3169411905, 716.366285399 L -20.3169411905, 789.822003802 M -20.3169411905, 799.2708227 L -20.3169411905, 872.726541102 M -5.52021166667, 301.843598898 L -5.52021166667, 375.2993173 M -5.52021166667, 384.748136198 L -5.52021166667, 458.203854601 M -5.52021166667, 467.652673498 L -5.52021166667, 541.108391901 M -5.52021166667, 550.557210799 L -5.52021166667, 624.012929201 M -5.52021166667, 633.461748099 L -5.52021166667, 706.917466502 M -5.52021166667, 716.366285399 L -5.52021166667, 789.822003802 M -5.52021166667, 799.2708227 L -5.52021166667, 872.726541102 M 9.27651785714, 301.843598898 L 9.27651785714, 375.2993173 M 9.27651785714, 384.748136198 L 9.27651785714, 458.203854601 M 9.27651785714, 467.652673498 L 9.27651785714, 541.108391901 M 9.27651785714, 550.557210799 L 9.27651785714, 624.012929201 M 9.27651785714, 633.461748099 L 9.27651785714, 706.917466502 M 9.27651785714, 716.366285399 L 9.27651785714, 789.822003802 M 9.27651785714, 799.2708227 L 9.27651785714, 872.726541102 M 24.073247381, 301.843598898 L 24.073247381, 375.2993173 M 24.073247381, 384.748136198 L 24.073247381, 458.203854601 M 24.073247381, 467.652673498 L 24.073247381, 541.108391901 M 24.073247381, 550.557210799 L 24.073247381, 624.012929201 M 24.073247381, 633.461748099 L 24.073247381, 706.917466502 M 24.073247381, 716.366285399 L 24.073247381, 789.822003802 M 24.073247381, 799.2708227 L 24.073247381, 872.726541102 M 38.8699769048, 301.843598898 L 38.8699769048, 375.2993173 M 38.8699769048, 384.748136198 L 38.8699769048, 458.203854601 M 38.8699769048, 467.652673498 L 38.8699769048, 541.108391901 M 38.8699769048, 550.557210799 L 38.8699769048, 624.012929201 M 38.8699769048, 633.461748099 L 38.8699769048, 706.917466502 M 38.8699769048, 716.366285399 L 38.8699769048, 789.822003802 M 38.8699769048, 799.2708227 L 38.8699769048, 872.726541102 M 53.6667064286, 301.843598898 L 53.6667064286, 375.2993173 M 53.6667064286, 384.748136198 L 53.6667064286, 458.203854601 M 53.6667064286, 467.652673498 L 53.6667064286, 541.108391901 M 53.6667064286, 550.557210799 L 53.6667064286, 624.012929201 M 53.6667064286, 633.461748099 L 53.6667064286, 706.917466502 M 53.6667064286, 716.366285399 L 53.6667064286, 789.822003802 M 53.6667064286, 799.2708227 L 53.6667064286, 872.726541102 M 68.4634359524, 301.843598898 L 68.4634359524, 375.2993173 M 68.4634359524, 384.748136198 L 68.4634359524, 458.203854601 M 68.4634359524, 467.652673498 L 68.4634359524, 541.108391901 M 68.4634359524, 550.557210799 L 68.4634359524, 624.012929201 M 68.4634359524, 633.461748099 L 68.4634359524, 706.917466502 M 68.4634359524, 716.366285399 L 68.4634359524, 789.822003802 M 68.4634359524, 799.2708227 L 68.4634359524, 872.726541102 M 83.2601654762, 301.843598898 L 83.2601654762, 375.2993173 M 83.2601654762, 384.748136198 L 83.2601654762, 458.203854601 M 83.2601654762, 467.652673498 L 83.2601654762, 541.108391901 M 83.2601654762, 550.557210799 L 83.2601654762, 624.012929201 M 83.2601654762, 633.461748099 L 83.2601654762, 706.917466502 M 83.2601654762, 716.366285399 L 83.2601654762, 789.822003802 M 83.2601654762, 799.2708227 L 83.2601654762, 872.726541102 M 98.056895, 301.843598898 L 98.056895, 375.2993173 M 98.056895, 384.748136198 L 98.056895, 458.203854601 M 98.056895, 467.652673498 L 98.056895, 541.108391901 M 98.056895, 550.557210799 L 98.056895, 624.012929201 M 98.056895, 633.461748099 L 98.056895, 706.917466502 M 98.056895, 716.366285399 L 98.056895, 789.822003802 M 98.056895, 799.2708227 L 98.056895, 872.726541102 M 112.853624524, 301.843598898 L 112.853624524, 375.2993173 M 112.853624524, 384.748136198 L 112.853624524, 458.203854601 M 112.853624524, 467.652673498 L 112.853624524, 541.108391901 M 112.853624524, 550.557210799 L 112.853624524, 624.012929201 M 112.853624524, 633.461748099 L 112.853624524, 706.917466502 M 112.853624524, 716.366285399 L 112.853624524, 789.822003802 M 112.853624524, 799.2708227 L 112.853624524, 872.726541102 M 127.650354048, 301.843598898 L 127.650354048, 375.2993173 M 127.650354048, 384.748136198 L 127.650354048, 458.203854601 M 127.650354048, 467.652673498 L 127.650354048, 541.108391901 M 127.650354048, 550.557210799 L 127.650354048, 624.012929201 M 127.650354048, 633.461748099 L 127.650354048, 706.917466502 M 127.650354048, 716.366285399 L 127.650354048, 789.822003802 M 127.650354048, 799.2708227 L 127.650354048, 872.726541102 M 142.447083571, 301.843598898 L 142.447083571, 375.2993173 M 142.447083571, 384.748136198 L 142.447083571, 458.203854601 M 142.447083571, 467.652673498 L 142.447083571, 541.108391901 M 142.447083571, 550.557210799 L 142.447083571, 624.012929201 M 142.447083571, 633.461748099 L 142.447083571, 706.917466502 M 142.447083571, 716.366285399 L 142.447083571, 789.822003802 M 142.447083571, 799.2708227 L 142.447083571, 872.726541102 M 157.243813095, 301.843598898 L 157.243813095, 375.2993173 M 157.243813095, 384.748136198 L 157.243813095, 458.203854601 M 157.243813095, 467.652673498 L 157.243813095, 541.108391901 M 157.243813095, 550.557210799 L 157.243813095, 624.012929201 M 157.243813095, 633.461748099 L 157.243813095, 706.917466502 M 157.243813095, 716.366285399 L 157.243813095, 789.822003802 M 157.243813095, 799.2708227 L 157.243813095, 872.726541102 M 172.040542619, 301.843598898 L 172.040542619, 375.2993173 M 172.040542619, 384.748136198 L 172.040542619, 458.203854601 M 172.040542619, 467.652673498 L 172.040542619, 541.108391901 M 172.040542619, 550.557210799 L 172.040542619, 624.012929201 M 172.040542619, 633.461748099 L 172.040542619, 706.917466502 M 172.040542619, 716.366285399 L 172.040542619, 789.822003802 M 172.040542619, 799.2708227 L 172.040542619, 872.726541102 M 186.837272143, 301.843598898 L 186.837272143, 375.2993173 M 186.837272143, 384.748136198 L 186.837272143, 458.203854601 M 186.837272143, 467.652673498 L 186.837272143, 541.108391901 M 186.837272143, 550.557210799 L 186.837272143, 624.012929201 M 186.837272143, 633.461748099 L 186.837272143, 706.917466502 M 186.837272143, 716.366285399 L 186.837272143, 789.822003802 M 186.837272143, 799.2708227 L 186.837272143, 872.726541102 M 201.634001667, 301.843598898 L 201.634001667, 375.2993173 M 201.634001667, 384.748136198 L 201.634001667, 458.203854601 M 201.634001667, 467.652673498 L 201.634001667, 541.108391901 M 201.634001667, 550.557210799 L 201.634001667, 624.012929201 M 201.634001667, 633.461748099 L 201.634001667, 706.917466502 M 201.634001667, 716.366285399 L 201.634001667, 789.822003802 M 201.634001667, 799.2708227 L 201.634001667, 872.726541102 M 216.43073119, 301.843598898 L 216.43073119, 375.2993173 M 216.43073119, 384.748136198 L 216.43073119, 458.203854601 M 216.43073119, 467.652673498 L 216.43073119, 541.108391901 M 216.43073119, 550.557210799 L 216.43073119, 624.012929201 M 216.43073119, 633.461748099 L 216.43073119, 706.917466502 M 216.43073119, 716.366285399 L 216.43073119, 789.822003802 M 216.43073119, 799.2708227 L 216.43073119, 872.726541102 M 231.227460714, 301.843598898 L 231.227460714, 375.2993173 M 231.227460714, 384.748136198 L 231.227460714, 458.203854601 M 231.227460714, 467.652673498 L 231.227460714, 541.108391901 M 231.227460714, 550.557210799 L 231.227460714, 624.012929201 M 231.227460714, 633.461748099 L 231.227460714, 706.917466502 M 231.227460714, 716.366285399 L 231.227460714, 789.822003802 M 231.227460714, 799.2708227 L 231.227460714, 872.726541102 M 246.024190238, 301.843598898 L 246.024190238, 375.2993173 M 246.024190238, 384.748136198 L 246.024190238, 458.203854601 M 246.024190238, 467.652673498 L 246.024190238, 541.108391901 M 246.024190238, 550.557210799 L 246.024190238, 624.012929201 M 246.024190238, 633.461748099 L 246.024190238, 706.917466502 M 246.024190238, 716.366285399 L 246.024190238, 789.822003802 M 246.024190238, 799.2708227 L 246.024190238, 872.726541102 ">
      <desc
         id="desc1129">Hinge cut parameters: actual(requested)
cut length: 19.44 mm (20.00 mm)
gap length: 2.50 mm (2.50 mm)
separation distance: 1.96 mm (2.00 mm)</desc>
    </path>
    <path
       inkscape:connector-curvature="0"
       id="path1131-3"
       style="fill:none;stroke:#000000;stroke-width:0.37795275"
       d="m 834.20138,293.42474 v 41.45227 m 0,9.44882 v 73.45572 m 0,9.44881 v 73.45572 m 0,9.44882 v 73.45572 m 0,9.44882 v 73.45572 m 0,9.44882 v 73.45572 m 0,9.44881 v 73.45572 m 0,9.44882 v 41.45227 m 14.79673,-589.78058 v 41.45227 m 0,9.44882 v 73.45572 m 0,9.44881 v 73.45572 m 0,9.44882 v 73.45572 m 0,9.44882 v 73.45572 m 0,9.44882 v 73.45572 m 0,9.44881 v 73.45572 m 0,9.44882 v 41.45227 m 14.79673,-589.78058 v 41.45227 m 0,9.44882 v 73.45572 m 0,9.44881 v 73.45572 m 0,9.44882 v 73.45572 m 0,9.44882 v 73.45572 m 0,9.44882 v 73.45572 m 0,9.44881 v 73.45572 m 0,9.44882 v 41.45227 m 14.79673,-589.78058 v 41.45227 m 0,9.44882 v 73.45572 m 0,9.44881 v 73.45572 m 0,9.44882 v 73.45572 m 0,9.44882 v 73.45572 m 0,9.44882 v 73.45572 m 0,9.44881 v 73.45572 m 0,9.44882 v 41.45227 M 893.3883,293.42474 v 41.45227 m 0,9.44882 v 73.45572 m 0,9.44881 v 73.45572 m 0,9.44882 v 73.45572 m 0,9.44882 v 73.45572 m 0,9.44882 v 73.45572 m 0,9.44881 v 73.45572 m 0,9.44882 v 41.45227 m 14.79673,-589.78058 v 41.45227 m 0,9.44882 v 73.45572 m 0,9.44881 v 73.45572 m 0,9.44882 v 73.45572 m 0,9.44882 v 73.45572 m 0,9.44882 v 73.45572 m 0,9.44881 v 73.45572 m 0,9.44882 v 41.45227 M 922.9818,293.42474 v 41.45227 m 0,9.44882 v 73.45572 m 0,9.44881 v 73.45572 m 0,9.44882 v 73.45572 m 0,9.44882 v 73.45572 m 0,9.44882 v 73.45572 m 0,9.44881 v 73.45572 m 0,9.44882 v 41.45227 m 14.7967,-589.78058 v 41.45227 m 0,9.44882 v 73.45572 m 0,9.44881 v 73.45572 m 0,9.44882 v 73.45572 m 0,9.44882 v 73.45572 m 0,9.44882 v 73.45572 m 0,9.44881 v 73.45572 m 0,9.44882 v 41.45227 m 14.7967,-589.78058 v 41.45227 m 0,9.44882 v 73.45572 m 0,9.44881 v 73.45572 m 0,9.44882 v 73.45572 m 0,9.44882 v 73.45572 m 0,9.44882 v 73.45572 m 0,9.44881 v 73.45572 m 0,9.44882 v 41.45227 M 967.372,293.42474 v 41.45227 m 0,9.44882 v 73.45572 m 0,9.44881 v 73.45572 m 0,9.44882 v 73.45572 m 0,9.44882 v 73.45572 m 0,9.44882 v 73.45572 m 0,9.44881 v 73.45572 m 0,9.44882 v 41.45227 m 14.7967,-589.78058 v 41.45227 m 0,9.44882 v 73.45572 m 0,9.44881 v 73.45572 m 0,9.44882 v 73.45572 m 0,9.44882 v 73.45572 m 0,9.44882 v 73.45572 m 0,9.44881 v 73.45572 m 0,9.44882 v 41.45227 m 14.7967,-589.78058 v 41.45227 m 0,9.44882 v 73.45572 m 0,9.44881 v 73.45572 m 0,9.44882 v 73.45572 m 0,9.44882 v 73.45572 m 0,9.44882 v 73.45572 m 0,9.44881 v 73.45572 m 0,9.44882 v 41.45227 m 14.7967,-589.78058 v 41.45227 m 0,9.44882 v 73.45572 m 0,9.44881 v 73.45572 m 0,9.44882 v 73.45572 m 0,9.44882 v 73.45572 m 0,9.44882 v 73.45572 m 0,9.44881 v 73.45572 m 0,9.44882 v 41.45227 m 14.7968,-589.78058 v 41.45227 m 0,9.44882 v 73.45572 m 0,9.44881 v 73.45572 m 0,9.44882 v 73.45572 m 0,9.44882 v 73.45572 m 0,9.44882 v 73.45572 m 0,9.44881 v 73.45572 m 0,9.44882 v 41.45227 m 14.7967,-589.78058 v 41.45227 m 0,9.44882 v 73.45572 m 0,9.44881 v 73.45572 m 0,9.44882 v 73.45572 m 0,9.44882 v 73.45572 m 0,9.44882 v 73.45572 m 0,9.44881 v 73.45572 m 0,9.44882 v 41.45227 m 14.7967,-589.78058 v 41.45227 m 0,9.44882 v 73.45572 m 0,9.44881 v 73.45572 m 0,9.44882 v 73.45572 m 0,9.44882 v 73.45572 m 0,9.44882 v 73.45572 m 0,9.44881 v 73.45572 m 0,9.44882 v 41.45227 m 14.7968,-589.78058 v 41.45227 m 0,9.44882 v 73.45572 m 0,9.44881 v 73.45572 m 0,9.44882 v 73.45572 m 0,9.44882 v 73.45572 m 0,9.44882 v 73.45572 m 0,9.44881 v 73.45572 m 0,9.44882 v 41.45227 m 14.7967,-589.78058 v 41.45227 m 0,9.44882 v 73.45572 m 0,9.44881 v 73.45572 m 0,9.44882 v 73.45572 m 0,9.44882 v 73.45572 m 0,9.44882 v 73.45572 m 0,9.44881 v 73.45572 m 0,9.44882 v 41.45227 m 14.7967,-589.78058 v 41.45227 m 0,9.44882 v 73.45572 m 0,9.44881 v 73.45572 m 0,9.44882 v 73.45572 m 0,9.44882 v 73.45572 m 0,9.44882 v 73.45572 m 0,9.44881 v 73.45572 m 0,9.44882 v 41.45227 m 14.7968,-589.78058 v 41.45227 m 0,9.44882 v 73.45572 m 0,9.44881 v 73.45572 m 0,9.44882 v 73.45572 m 0,9.44882 v 73.45572 m 0,9.44882 v 73.45572 m 0,9.44881 v 73.45572 m 0,9.44882 v 41.45227 m 14.7967,-589.78058 v 41.45227 m 0,9.44882 v 73.45572 m 0,9.44881 v 73.45572 m 0,9.44882 v 73.45572 m 0,9.44882 v 73.45572 m 0,9.44882 v 73.45572 m 0,9.44881 v 73.45572 m 0,9.44882 v 41.45227 m 14.7967,-589.78058 v 41.45227 m 0,9.44882 v 73.45572 m 0,9.44881 v 73.45572 m 0,9.44882 v 73.45572 m 0,9.44882 v 73.45572 m 0,9.44882 v 73.45572 m 0,9.44881 v 73.45572 m 0,9.44882 v 41.45227 M 841.59975,302.87356 v 73.45572 m 0,9.44882 v 73.45571 m 0,9.44882 v 73.45572 m 0,9.44882 v 73.45572 m 0,9.44882 v 73.45572 m 0,9.44882 v 73.45571 m 0,9.44882 v 73.45572 m 14.79673,-570.88294 v 73.45572 m 0,9.44882 v 73.45571 m 0,9.44882 v 73.45572 m 0,9.44882 v 73.45572 m 0,9.44882 v 73.45572 m 0,9.44882 v 73.45571 m 0,9.44882 v 73.45572 m 14.79673,-570.88294 v 73.45572 m 0,9.44882 v 73.45571 m 0,9.44882 v 73.45572 m 0,9.44882 v 73.45572 m 0,9.44882 v 73.45572 m 0,9.44882 v 73.45571 m 0,9.44882 v 73.45572 m 14.79673,-570.88294 v 73.45572 m 0,9.44882 v 73.45571 m 0,9.44882 v 73.45572 m 0,9.44882 v 73.45572 m 0,9.44882 v 73.45572 m 0,9.44882 v 73.45571 m 0,9.44882 v 73.45572 m 14.79672,-570.88294 v 73.45572 m 0,9.44882 v 73.45571 m 0,9.44882 v 73.45572 m 0,9.44882 v 73.45572 m 0,9.44882 v 73.45572 m 0,9.44882 v 73.45571 m 0,9.44882 v 73.45572 m 14.79673,-570.88294 v 73.45572 m 0,9.44882 v 73.45571 m 0,9.44882 v 73.45572 m 0,9.44882 v 73.45572 m 0,9.44882 v 73.45572 m 0,9.44882 v 73.45571 m 0,9.44882 V 873.7565 M 930.3801,302.87356 v 73.45572 m 0,9.44882 v 73.45571 m 0,9.44882 v 73.45572 m 0,9.44882 v 73.45572 m 0,9.44882 v 73.45572 m 0,9.44882 v 73.45571 m 0,9.44882 v 73.45572 m 14.7968,-570.88294 v 73.45572 m 0,9.44882 v 73.45571 m 0,9.44882 v 73.45572 m 0,9.44882 v 73.45572 m 0,9.44882 v 73.45572 m 0,9.44882 v 73.45571 m 0,9.44882 v 73.45572 m 14.7967,-570.88294 v 73.45572 m 0,9.44882 v 73.45571 m 0,9.44882 v 73.45572 m 0,9.44882 v 73.45572 m 0,9.44882 v 73.45572 m 0,9.44882 v 73.45571 m 0,9.44882 v 73.45572 m 14.7967,-570.88294 v 73.45572 m 0,9.44882 v 73.45571 m 0,9.44882 v 73.45572 m 0,9.44882 v 73.45572 m 0,9.44882 v 73.45572 m 0,9.44882 v 73.45571 m 0,9.44882 v 73.45572 m 14.7968,-570.88294 v 73.45572 m 0,9.44882 v 73.45571 m 0,9.44882 v 73.45572 m 0,9.44882 v 73.45572 m 0,9.44882 v 73.45572 m 0,9.44882 v 73.45571 m 0,9.44882 v 73.45572 m 14.7967,-570.88294 v 73.45572 m 0,9.44882 v 73.45571 m 0,9.44882 v 73.45572 m 0,9.44882 v 73.45572 m 0,9.44882 v 73.45572 m 0,9.44882 v 73.45571 m 0,9.44882 v 73.45572 m 14.7967,-570.88294 v 73.45572 m 0,9.44882 v 73.45571 m 0,9.44882 v 73.45572 m 0,9.44882 v 73.45572 m 0,9.44882 v 73.45572 m 0,9.44882 v 73.45571 m 0,9.44882 v 73.45572 m 14.7967,-570.88294 v 73.45572 m 0,9.44882 v 73.45571 m 0,9.44882 v 73.45572 m 0,9.44882 v 73.45572 m 0,9.44882 v 73.45572 m 0,9.44882 v 73.45571 m 0,9.44882 v 73.45572 m 14.7968,-570.88294 v 73.45572 m 0,9.44882 v 73.45571 m 0,9.44882 v 73.45572 m 0,9.44882 v 73.45572 m 0,9.44882 v 73.45572 m 0,9.44882 v 73.45571 m 0,9.44882 v 73.45572 m 14.7967,-570.88294 v 73.45572 m 0,9.44882 v 73.45571 m 0,9.44882 v 73.45572 m 0,9.44882 v 73.45572 m 0,9.44882 v 73.45572 m 0,9.44882 v 73.45571 m 0,9.44882 v 73.45572 m 14.7967,-570.88294 v 73.45572 m 0,9.44882 v 73.45571 m 0,9.44882 v 73.45572 m 0,9.44882 v 73.45572 m 0,9.44882 v 73.45572 m 0,9.44882 v 73.45571 m 0,9.44882 v 73.45572 m 14.7968,-570.88294 v 73.45572 m 0,9.44882 v 73.45571 m 0,9.44882 v 73.45572 m 0,9.44882 v 73.45572 m 0,9.44882 v 73.45572 m 0,9.44882 v 73.45571 m 0,9.44882 v 73.45572 m 14.7967,-570.88294 v 73.45572 m 0,9.44882 v 73.45571 m 0,9.44882 v 73.45572 m 0,9.44882 v 73.45572 m 0,9.44882 v 73.45572 m 0,9.44882 v 73.45571 m 0,9.44882 v 73.45572 m 14.7967,-570.88294 v 73.45572 m 0,9.44882 v 73.45571 m 0,9.44882 v 73.45572 m 0,9.44882 v 73.45572 m 0,9.44882 v 73.45572 m 0,9.44882 v 73.45571 m 0,9.44882 v 73.45572 m 14.7967,-570.88294 v 73.45572 m 0,9.44882 v 73.45571 m 0,9.44882 v 73.45572 m 0,9.44882 v 73.45572 m 0,9.44882 v 73.45572 m 0,9.44882 v 73.45571 m 0,9.44882 v 73.45572">
      <desc
         id="desc1129-6">Hinge cut parameters: actual(requested)
cut length: 19.44 mm (20.00 mm)
gap length: 2.50 mm (2.50 mm)
separation distance: 1.96 mm (2.00 mm)</desc>
    </path>
    <rect
       id="rect83"
       width="53.50708"
       height="19.185741"
       x="-124.27853"
       y="286.31439"
       style="fill:none;stroke:#000000;stroke-width:0.66682309;stroke-miterlimit:4;stroke-dasharray:none;stroke-opacity:1" />
    <rect
       id="rect83-6"
       width="53.50708"
       height="19.185741"
       x="352.04398"
       y="282.8403"
       style="fill:none;stroke:#000000;stroke-width:0.66682309;stroke-miterlimit:4;stroke-dasharray:none;stroke-opacity:1" />
    <rect
       id="rect83-6-7"
       width="53.50708"
       height="19.185741"
       x="435.55106"
       y="282.8403"
       style="fill:none;stroke:#000000;stroke-width:0.66682309;stroke-miterlimit:4;stroke-dasharray:none;stroke-opacity:1" />
    <rect
       id="rect83-6-5"
       width="53.50708"
       height="19.185741"
       x="525.05811"
       y="282.8403"
       style="fill:none;stroke:#000000;stroke-width:0.66682309;stroke-miterlimit:4;stroke-dasharray:none;stroke-opacity:1" />
    <rect
       id="rect83-6-3"
       width="53.50708"
       height="19.185741"
       x="610.56519"
       y="282.8403"
       style="fill:none;stroke:#000000;stroke-width:0.66682309;stroke-miterlimit:4;stroke-dasharray:none;stroke-opacity:1" />
    <rect
       id="rect83-6-56"
       width="53.50708"
       height="19.185741"
       x="694.07227"
       y="282.8403"
       style="fill:none;stroke:#000000;stroke-width:0.66682309;stroke-miterlimit:4;stroke-dasharray:none;stroke-opacity:1" />
    <rect
       id="rect83-6-2"
       width="53.50708"
       height="19.185741"
       x="769.57935"
       y="282.8403"
       style="fill:none;stroke:#000000;stroke-width:0.66682309;stroke-miterlimit:4;stroke-dasharray:none;stroke-opacity:1" />
    <rect
       id="rect83-9"
       width="53.50708"
       height="19.185741"
       x="270.2952"
       y="871.56543"
       style="fill:none;stroke:#000000;stroke-width:0.66682309;stroke-miterlimit:4;stroke-dasharray:none;stroke-opacity:1" />
    <rect
       id="rect83-6-1"
       width="53.50708"
       height="19.185741"
       x="351.80228"
       y="871.56543"
       style="fill:none;stroke:#000000;stroke-width:0.66682309;stroke-miterlimit:4;stroke-dasharray:none;stroke-opacity:1" />
    <rect
       id="rect83-6-7-2"
       width="53.50708"
       height="19.185741"
       x="435.30936"
       y="871.56543"
       style="fill:none;stroke:#000000;stroke-width:0.66682309;stroke-miterlimit:4;stroke-dasharray:none;stroke-opacity:1" />
    <rect
       id="rect83-6-5-7"
       width="53.50708"
       height="19.185741"
       x="524.81641"
       y="871.56543"
       style="fill:none;stroke:#000000;stroke-width:0.66682309;stroke-miterlimit:4;stroke-dasharray:none;stroke-opacity:1" />
    <rect
       id="rect83-6-3-0"
       width="53.50708"
       height="19.185741"
       x="610.32349"
       y="871.56543"
       style="fill:none;stroke:#000000;stroke-width:0.66682309;stroke-miterlimit:4;stroke-dasharray:none;stroke-opacity:1" />
    <rect
       id="rect83-6-56-9"
       width="53.50708"
       height="19.185741"
       x="693.83057"
       y="871.56543"
       style="fill:none;stroke:#000000;stroke-width:0.66682309;stroke-miterlimit:4;stroke-dasharray:none;stroke-opacity:1" />
    <rect
       id="rect83-6-2-3"
       width="53.50708"
       height="19.185741"
       x="769.33765"
       y="871.56543"
       style="fill:none;stroke:#000000;stroke-width:0.66682309;stroke-miterlimit:4;stroke-dasharray:none;stroke-opacity:1" />
    <rect
       id="rect83-60"
       width="53.50708"
       height="19.185741"
       x="279.72147"
       y="282.31439"
       style="fill:none;stroke:#000000;stroke-width:0.66682309;stroke-miterlimit:4;stroke-dasharray:none;stroke-opacity:1" />
    <rect
       id="rect83-61"
       width="53.50708"
       height="19.185741"
       x="-124.27853"
       y="872.31439"
       style="fill:none;stroke:#000000;stroke-width:0.66682309;stroke-miterlimit:4;stroke-dasharray:none;stroke-opacity:1" />
    <rect
       id="rect83-8"
       width="53.50708"
       height="19.185741"
       x="1155.7214"
       y="286.31433"
       style="fill:none;stroke:#000000;stroke-width:0.66682309;stroke-miterlimit:4;stroke-dasharray:none;stroke-opacity:1" />
    <rect
       id="rect83-61-7"
       width="53.50708"
       height="19.185741"
       x="1155.7214"
       y="872.31439"
       style="fill:none;stroke:#000000;stroke-width:0.66682309;stroke-miterlimit:4;stroke-dasharray:none;stroke-opacity:1" />
  </g>
</svg>
