<?xml version="1.0" encoding="UTF-8" standalone="no"?>
<svg
   xmlns:dc="http://purl.org/dc/elements/1.1/"
   xmlns:cc="http://creativecommons.org/ns#"
   xmlns:rdf="http://www.w3.org/1999/02/22-rdf-syntax-ns#"
   xmlns:svg="http://www.w3.org/2000/svg"
   xmlns="http://www.w3.org/2000/svg"
   xmlns:sodipodi="http://sodipodi.sourceforge.net/DTD/sodipodi-0.dtd"
   xmlns:inkscape="http://www.inkscape.org/namespaces/inkscape"
   width="793.700787402"
   height="1122.51968504"
   version="1.1"
   id="svg1099"
   sodipodi:docname="sidewalltry1.svg"
   inkscape:version="0.92.4 (unknown)">
  <metadata
     id="metadata1103">
    <rdf:RDF>
      <cc:Work
         rdf:about="">
        <dc:format>image/svg+xml</dc:format>
        <dc:type
           rdf:resource="http://purl.org/dc/dcmitype/StillImage" />
        <dc:title></dc:title>
      </cc:Work>
    </rdf:RDF>
  </metadata>
  <sodipodi:namedview
     pagecolor="#ffffff"
     bordercolor="#666666"
     borderopacity="1"
     objecttolerance="10"
     gridtolerance="10"
     guidetolerance="10"
     inkscape:pageopacity="0"
     inkscape:pageshadow="2"
     inkscape:window-width="1366"
     inkscape:window-height="713"
     id="namedview1101"
     showgrid="false"
     inkscape:zoom="1"
     inkscape:cx="408.73992"
     inkscape:cy="403.37957"
     inkscape:window-x="0"
     inkscape:window-y="27"
     inkscape:window-maximized="1"
     inkscape:current-layer="g1097"
     inkscape:snap-page="true"
     inkscape:lockguides="false" />
  <desc
     id="desc815">E:\hhhinge.dxf - scale = 1.000000, origin = (0.000000, 0.000000), method = file</desc>
  <defs
     id="defs829">
    <marker
       id="DistanceX"
       orient="auto"
       refX="0.0"
       refY="0.0"
       style="overflow:visible">
      <path
         d="M 3,-3 L -3,3 M 0,-5 L  0,5"
         style="stroke:#000000; stroke-width:0.5"
         id="path817" />
    </marker>
    <pattern
       height="8"
       id="Hatch"
       patternUnits="userSpaceOnUse"
       width="8"
       x="0"
       y="0">
      <path
         d="M8 4 l-4,4"
         linecap="square"
         stroke="#000000"
         stroke-width="0.25"
         id="path820" />
      <path
         d="M6 2 l-4,4"
         linecap="square"
         stroke="#000000"
         stroke-width="0.25"
         id="path822" />
      <path
         d="M4 0 l-4,4"
         linecap="square"
         stroke="#000000"
         stroke-width="0.25"
         id="path824" />
    </pattern>
    <symbol
       id="*MODEL_SPACE" />
    <symbol
       id="*PAPER_SPACE" />
  </defs>
  <g
     inkscape:groupmode="layer"
     inkscape:label="0"
     id="g831" />
  <g
     inkscape:groupmode="layer"
     inkscape:label="Layer_1"
     id="g1097">
    <path
       d="M -390.24034,520.74699 H 1430.5191"
       style="fill:none;stroke:#000000;stroke-width:0.73009294"
       id="path833"
       inkscape:connector-curvature="0" />
    <path
       d="M 1430.5191,520.38864 V 886.3152"
       style="fill:none;stroke:#000000;stroke-width:0.78714514"
       id="path835"
       inkscape:connector-curvature="0" />
    <path
       d="M 1430.519,886.31519 H -391.06822"
       style="fill:none;stroke:#000000;stroke-width:0.73009294"
       id="path837"
       inkscape:connector-curvature="0" />
    <path
       d="m -57.289264,520.38864 v 25.68222"
       style="fill:none;stroke:#000000;stroke-width:0.78714514"
       id="path839"
       inkscape:connector-curvature="0" />
    <path
       d="m -57.289264,860.11161 v 25.68222"
       style="fill:none;stroke:#000000;stroke-width:0.78714514"
       id="path853"
       inkscape:connector-curvature="0" />
    <path
       d="m 253.46021,520.38864 v 25.68222"
       style="fill:none;stroke:#000000;stroke-width:0.78714514"
       id="path967"
       inkscape:connector-curvature="0" />
    <path
       d="m 253.46021,860.11161 v 25.68222"
       style="fill:none;stroke:#000000;stroke-width:0.78714514"
       id="path981"
       inkscape:connector-curvature="0" />
    <path
       d="M -389.24838,520.43326 V 886.6061"
       style="fill:none;stroke:#000000;stroke-width:0.73009294"
       id="path1095"
       inkscape:connector-curvature="0" />
    <path
       id="path1131"
       style="fill:none;stroke:#000000;stroke-width:0.29750365"
       d="m -57.289264,520.38865 v 25.68222 m 0,5.85412 v 45.51032 m 0,5.85412 v 45.51031 m 0,5.85413 v 45.51031 m 0,5.85412 v 45.51032 m 0,5.85412 v 45.51032 m 0,5.85412 v 45.51031 m 0,5.85412 v 25.68222 M -42.49167,520.38865 v 25.68222 m 0,5.85412 v 45.51032 m 0,5.85412 v 45.51031 m 0,5.85413 v 45.51031 m 0,5.85412 v 45.51032 m 0,5.85412 v 45.51032 m 0,5.85412 v 45.51031 m 0,5.85412 v 25.68222 m 14.797594,-365.40518 v 25.68222 m 0,5.85412 v 45.51032 m 0,5.85412 v 45.51031 m 0,5.85413 v 45.51031 m 0,5.85412 v 45.51032 m 0,5.85412 v 45.51032 m 0,5.85412 v 45.51031 m 0,5.85412 v 25.68222 m 14.797595,-365.40518 v 25.68222 m 0,5.85412 v 45.51032 m 0,5.85412 v 45.51031 m 0,5.85413 v 45.51031 m 0,5.85412 v 45.51032 m 0,5.85412 v 45.51032 m 0,5.85412 v 45.51031 m 0,5.85412 v 25.68222 M 1.9011126,520.38865 v 25.68222 m 0,5.85412 v 45.51032 m 0,5.85412 v 45.51031 m 0,5.85413 v 45.51031 m 0,5.85412 v 45.51032 m 0,5.85412 v 45.51032 m 0,5.85412 v 45.51031 m 0,5.85412 v 25.68222 M 16.698707,520.38865 v 25.68222 m 0,5.85412 v 45.51032 m 0,5.85412 v 45.51031 m 0,5.85413 v 45.51031 m 0,5.85412 v 45.51032 m 0,5.85412 v 45.51032 m 0,5.85412 v 45.51031 m 0,5.85412 v 25.68222 M 31.496301,520.38865 v 25.68222 m 0,5.85412 v 45.51032 m 0,5.85412 v 45.51031 m 0,5.85413 v 45.51031 m 0,5.85412 v 45.51032 m 0,5.85412 v 45.51032 m 0,5.85412 v 45.51031 m 0,5.85412 v 25.68222 M 46.293895,520.38865 v 25.68222 m 0,5.85412 v 45.51032 m 0,5.85412 v 45.51031 m 0,5.85413 v 45.51031 m 0,5.85412 v 45.51032 m 0,5.85412 v 45.51032 m 0,5.85412 v 45.51031 m 0,5.85412 v 25.68222 M 61.091489,520.38865 v 25.68222 m 0,5.85412 v 45.51032 m 0,5.85412 v 45.51031 m 0,5.85413 v 45.51031 m 0,5.85412 v 45.51032 m 0,5.85412 v 45.51032 m 0,5.85412 v 45.51031 m 0,5.85412 v 25.68222 M 75.889083,520.38865 v 25.68222 m 0,5.85412 v 45.51032 m 0,5.85412 v 45.51031 m 0,5.85413 v 45.51031 m 0,5.85412 v 45.51032 m 0,5.85412 v 45.51032 m 0,5.85412 v 45.51031 m 0,5.85412 v 25.68222 M 90.686677,520.38865 v 25.68222 m 0,5.85412 v 45.51032 m 0,5.85412 v 45.51031 m 0,5.85413 v 45.51031 m 0,5.85412 v 45.51032 m 0,5.85412 v 45.51032 m 0,5.85412 v 45.51031 m 0,5.85412 v 25.68222 M 105.48427,520.38865 v 25.68222 m 0,5.85412 v 45.51032 m 0,5.85412 v 45.51031 m 0,5.85413 v 45.51031 m 0,5.85412 v 45.51032 m 0,5.85412 v 45.51032 m 0,5.85412 v 45.51031 m 0,5.85412 v 25.68222 m 14.7976,-365.40518 v 25.68222 m 0,5.85412 v 45.51032 m 0,5.85412 v 45.51031 m 0,5.85413 v 45.51031 m 0,5.85412 v 45.51032 m 0,5.85412 v 45.51032 m 0,5.85412 v 45.51031 m 0,5.85412 v 25.68222 m 14.79759,-365.40518 v 25.68222 m 0,5.85412 v 45.51032 m 0,5.85412 v 45.51031 m 0,5.85413 v 45.51031 m 0,5.85412 v 45.51032 m 0,5.85412 v 45.51032 m 0,5.85412 v 45.51031 m 0,5.85412 v 25.68222 m 14.79759,-365.40518 v 25.68222 m 0,5.85412 v 45.51032 m 0,5.85412 v 45.51031 m 0,5.85413 v 45.51031 m 0,5.85412 v 45.51032 m 0,5.85412 v 45.51032 m 0,5.85412 v 45.51031 m 0,5.85412 v 25.68222 m 14.7976,-365.40518 v 25.68222 m 0,5.85412 v 45.51032 m 0,5.85412 v 45.51031 m 0,5.85413 v 45.51031 m 0,5.85412 v 45.51032 m 0,5.85412 v 45.51032 m 0,5.85412 v 45.51031 m 0,5.85412 v 25.68222 m 14.79759,-365.40518 v 25.68222 m 0,5.85412 v 45.51032 m 0,5.85412 v 45.51031 m 0,5.85413 v 45.51031 m 0,5.85412 v 45.51032 m 0,5.85412 v 45.51032 m 0,5.85412 v 45.51031 m 0,5.85412 v 25.68222 m 14.7976,-365.40518 v 25.68222 m 0,5.85412 v 45.51032 m 0,5.85412 v 45.51031 m 0,5.85413 v 45.51031 m 0,5.85412 v 45.51032 m 0,5.85412 v 45.51032 m 0,5.85412 v 45.51031 m 0,5.85412 v 25.68222 m 14.79759,-365.40518 v 25.68222 m 0,5.85412 v 45.51032 m 0,5.85412 v 45.51031 m 0,5.85413 v 45.51031 m 0,5.85412 v 45.51032 m 0,5.85412 v 45.51032 m 0,5.85412 v 45.51031 m 0,5.85412 v 25.68222 m 14.79759,-365.40518 v 25.68222 m 0,5.85412 v 45.51032 m 0,5.85412 v 45.51031 m 0,5.85413 v 45.51031 m 0,5.85412 v 45.51032 m 0,5.85412 v 45.51032 m 0,5.85412 v 45.51031 m 0,5.85412 v 25.68222 m 14.7976,-365.40518 v 25.68222 m 0,5.85412 v 45.51032 m 0,5.85412 v 45.51031 m 0,5.85413 v 45.51031 m 0,5.85412 v 45.51032 m 0,5.85412 v 45.51032 m 0,5.85412 v 45.51031 m 0,5.85412 v 25.68222 m 14.79759,-365.40518 v 25.68222 m 0,5.85412 v 45.51032 m 0,5.85412 v 45.51031 m 0,5.85413 v 45.51031 m 0,5.85412 v 45.51032 m 0,5.85412 v 45.51032 m 0,5.85412 v 45.51031 m 0,5.85412 v 25.68222 M -49.890467,526.24277 v 45.51032 m 0,5.85412 v 45.51031 m 0,5.85413 v 45.51031 m 0,5.85412 v 45.51032 m 0,5.85412 v 45.51032 m 0,5.85412 v 45.51031 m 0,5.85413 v 45.51031 m 14.797594,-353.69694 v 45.51032 m 0,5.85412 v 45.51031 m 0,5.85413 v 45.51031 m 0,5.85412 v 45.51032 m 0,5.85412 v 45.51032 m 0,5.85412 v 45.51031 m 0,5.85413 v 45.51031 m 14.797594,-353.69694 v 45.51032 m 0,5.85412 v 45.51031 m 0,5.85413 v 45.51031 m 0,5.85412 v 45.51032 m 0,5.85412 v 45.51032 m 0,5.85412 v 45.51031 m 0,5.85413 v 45.51031 M -5.4976845,526.24277 v 45.51032 m 0,5.85412 v 45.51031 m 0,5.85413 v 45.51031 m 0,5.85412 v 45.51032 m 0,5.85412 v 45.51032 m 0,5.85412 v 45.51031 m 0,5.85413 v 45.51031 M 9.2999096,526.24277 v 45.51032 m 0,5.85412 v 45.51031 m 0,5.85413 v 45.51031 m 0,5.85412 v 45.51032 m 0,5.85412 v 45.51032 m 0,5.85412 v 45.51031 m 0,5.85413 v 45.51031 M 24.097504,526.24277 v 45.51032 m 0,5.85412 v 45.51031 m 0,5.85413 v 45.51031 m 0,5.85412 v 45.51032 m 0,5.85412 v 45.51032 m 0,5.85412 v 45.51031 m 0,5.85413 v 45.51031 M 38.895098,526.24277 v 45.51032 m 0,5.85412 v 45.51031 m 0,5.85413 v 45.51031 m 0,5.85412 v 45.51032 m 0,5.85412 v 45.51032 m 0,5.85412 v 45.51031 m 0,5.85413 v 45.51031 M 53.692692,526.24277 v 45.51032 m 0,5.85412 v 45.51031 m 0,5.85413 v 45.51031 m 0,5.85412 v 45.51032 m 0,5.85412 v 45.51032 m 0,5.85412 v 45.51031 m 0,5.85413 v 45.51031 M 68.490286,526.24277 v 45.51032 m 0,5.85412 v 45.51031 m 0,5.85413 v 45.51031 m 0,5.85412 v 45.51032 m 0,5.85412 v 45.51032 m 0,5.85412 v 45.51031 m 0,5.85413 v 45.51031 M 83.28788,526.24277 v 45.51032 m 0,5.85412 v 45.51031 m 0,5.85413 v 45.51031 m 0,5.85412 v 45.51032 m 0,5.85412 v 45.51032 m 0,5.85412 v 45.51031 m 0,5.85413 v 45.51031 M 98.085474,526.24277 v 45.51032 m 0,5.85412 v 45.51031 m 0,5.85413 v 45.51031 m 0,5.85412 v 45.51032 m 0,5.85412 v 45.51032 m 0,5.85412 v 45.51031 m 0,5.85413 v 45.51031 M 112.88307,526.24277 v 45.51032 m 0,5.85412 v 45.51031 m 0,5.85413 v 45.51031 m 0,5.85412 v 45.51032 m 0,5.85412 v 45.51032 m 0,5.85412 v 45.51031 m 0,5.85413 v 45.51031 m 14.79759,-353.69694 v 45.51032 m 0,5.85412 v 45.51031 m 0,5.85413 v 45.51031 m 0,5.85412 v 45.51032 m 0,5.85412 v 45.51032 m 0,5.85412 v 45.51031 m 0,5.85413 v 45.51031 m 14.7976,-353.69694 v 45.51032 m 0,5.85412 v 45.51031 m 0,5.85413 v 45.51031 m 0,5.85412 v 45.51032 m 0,5.85412 v 45.51032 m 0,5.85412 v 45.51031 m 0,5.85413 v 45.51031 m 14.79759,-353.69694 v 45.51032 m 0,5.85412 v 45.51031 m 0,5.85413 v 45.51031 m 0,5.85412 v 45.51032 m 0,5.85412 v 45.51032 m 0,5.85412 v 45.51031 m 0,5.85413 v 45.51031 m 14.79759,-353.69694 v 45.51032 m 0,5.85412 v 45.51031 m 0,5.85413 v 45.51031 m 0,5.85412 v 45.51032 m 0,5.85412 v 45.51032 m 0,5.85412 v 45.51031 m 0,5.85413 v 45.51031 m 14.7976,-353.69694 v 45.51032 m 0,5.85412 v 45.51031 m 0,5.85413 v 45.51031 m 0,5.85412 v 45.51032 m 0,5.85412 v 45.51032 m 0,5.85412 v 45.51031 m 0,5.85413 v 45.51031 m 14.79759,-353.69694 v 45.51032 m 0,5.85412 v 45.51031 m 0,5.85413 v 45.51031 m 0,5.85412 v 45.51032 m 0,5.85412 v 45.51032 m 0,5.85412 v 45.51031 m 0,5.85413 v 45.51031 m 14.7976,-353.69694 v 45.51032 m 0,5.85412 v 45.51031 m 0,5.85413 v 45.51031 m 0,5.85412 v 45.51032 m 0,5.85412 v 45.51032 m 0,5.85412 v 45.51031 m 0,5.85413 v 45.51031 m 14.79759,-353.69694 v 45.51032 m 0,5.85412 v 45.51031 m 0,5.85413 v 45.51031 m 0,5.85412 v 45.51032 m 0,5.85412 v 45.51032 m 0,5.85412 v 45.51031 m 0,5.85413 v 45.51031 m 14.79759,-353.69694 v 45.51032 m 0,5.85412 v 45.51031 m 0,5.85413 v 45.51031 m 0,5.85412 v 45.51032 m 0,5.85412 v 45.51032 m 0,5.85412 v 45.51031 m 0,5.85413 v 45.51031"
       inkscape:connector-curvature="0">
      <desc
         id="desc1129">Hinge cut parameters: actual(requested)
cut length: 19.44 mm (20.00 mm)
gap length: 2.50 mm (2.50 mm)
separation distance: 1.96 mm (2.00 mm)</desc>
    </path>
    <path
       inkscape:connector-curvature="0"
       id="path1131-3"
       style="fill:none;stroke:#000000;stroke-width:0.29750365"
       d="m 834.27297,521.02677 v 25.68222 m 0,5.85413 v 45.51031 m 0,5.85412 v 45.51031 m 0,5.85413 v 45.51031 m 0,5.85413 v 45.51031 m 0,5.85413 v 45.51031 m 0,5.85412 v 45.51031 m 0,5.85413 v 25.68222 m 14.7976,-365.40519 v 25.68222 m 0,5.85413 v 45.51031 m 0,5.85412 v 45.51031 m 0,5.85413 v 45.51031 m 0,5.85413 v 45.51031 m 0,5.85413 v 45.51031 m 0,5.85412 v 45.51031 m 0,5.85413 v 25.68222 m 14.79759,-365.40519 v 25.68222 m 0,5.85413 v 45.51031 m 0,5.85412 v 45.51031 m 0,5.85413 v 45.51031 m 0,5.85413 v 45.51031 m 0,5.85413 v 45.51031 m 0,5.85412 v 45.51031 m 0,5.85413 v 25.68222 m 14.7976,-365.40519 v 25.68222 m 0,5.85413 v 45.51031 m 0,5.85412 v 45.51031 m 0,5.85413 v 45.51031 m 0,5.85413 v 45.51031 m 0,5.85413 v 45.51031 m 0,5.85412 v 45.51031 m 0,5.85413 v 25.68222 m 14.79759,-365.40519 v 25.68222 m 0,5.85413 v 45.51031 m 0,5.85412 v 45.51031 m 0,5.85413 v 45.51031 m 0,5.85413 v 45.51031 m 0,5.85413 v 45.51031 m 0,5.85412 v 45.51031 m 0,5.85413 v 25.68222 m 14.79759,-365.40519 v 25.68222 m 0,5.85413 v 45.51031 m 0,5.85412 v 45.51031 m 0,5.85413 v 45.51031 m 0,5.85413 v 45.51031 m 0,5.85413 v 45.51031 m 0,5.85412 v 45.51031 m 0,5.85413 v 25.68222 m 14.79764,-365.40519 v 25.68222 m 0,5.85413 v 45.51031 m 0,5.85412 v 45.51031 m 0,5.85413 v 45.51031 m 0,5.85413 v 45.51031 m 0,5.85413 v 45.51031 m 0,5.85412 v 45.51031 m 0,5.85413 v 25.68222 m 14.79756,-365.40519 v 25.68222 m 0,5.85413 v 45.51031 m 0,5.85412 v 45.51031 m 0,5.85413 v 45.51031 m 0,5.85413 v 45.51031 m 0,5.85413 v 45.51031 m 0,5.85412 v 45.51031 m 0,5.85413 v 25.68222 m 14.79757,-365.40519 v 25.68222 m 0,5.85413 v 45.51031 m 0,5.85412 v 45.51031 m 0,5.85413 v 45.51031 m 0,5.85413 v 45.51031 m 0,5.85413 v 45.51031 m 0,5.85412 v 45.51031 m 0,5.85413 v 25.68222 m 14.79766,-365.40519 v 25.68222 m 0,5.85413 v 45.51031 m 0,5.85412 v 45.51031 m 0,5.85413 v 45.51031 m 0,5.85413 v 45.51031 m 0,5.85413 v 45.51031 m 0,5.85412 v 45.51031 m 0,5.85413 v 25.68222 m 14.79757,-365.40519 v 25.68222 m 0,5.85413 v 45.51031 m 0,5.85412 v 45.51031 m 0,5.85413 v 45.51031 m 0,5.85413 v 45.51031 m 0,5.85413 v 45.51031 m 0,5.85412 v 45.51031 m 0,5.85413 v 25.68222 M 997.0465,521.02677 v 25.68222 m 0,5.85413 v 45.51031 m 0,5.85412 v 45.51031 m 0,5.85413 v 45.51031 m 0,5.85413 v 45.51031 m 0,5.85413 v 45.51031 m 0,5.85412 v 45.51031 m 0,5.85413 v 25.68222 m 14.7976,-365.40519 v 25.68222 m 0,5.85413 v 45.51031 m 0,5.85412 v 45.51031 m 0,5.85413 v 45.51031 m 0,5.85413 v 45.51031 m 0,5.85413 v 45.51031 m 0,5.85412 v 45.51031 m 0,5.85413 v 25.68222 m 14.7976,-365.40519 v 25.68222 m 0,5.85413 v 45.51031 m 0,5.85412 v 45.51031 m 0,5.85413 v 45.51031 m 0,5.85413 v 45.51031 m 0,5.85413 v 45.51031 m 0,5.85412 v 45.51031 m 0,5.85413 v 25.68222 m 14.7976,-365.40519 v 25.68222 m 0,5.85413 v 45.51031 m 0,5.85412 v 45.51031 m 0,5.85413 v 45.51031 m 0,5.85413 v 45.51031 m 0,5.85413 v 45.51031 m 0,5.85412 v 45.51031 m 0,5.85413 v 25.68222 m 14.7976,-365.40519 v 25.68222 m 0,5.85413 v 45.51031 m 0,5.85412 v 45.51031 m 0,5.85413 v 45.51031 m 0,5.85413 v 45.51031 m 0,5.85413 v 45.51031 m 0,5.85412 v 45.51031 m 0,5.85413 v 25.68222 m 14.7976,-365.40519 v 25.68222 m 0,5.85413 v 45.51031 m 0,5.85412 v 45.51031 m 0,5.85413 v 45.51031 m 0,5.85413 v 45.51031 m 0,5.85413 v 45.51031 m 0,5.85412 v 45.51031 m 0,5.85413 v 25.68222 m 14.7976,-365.40519 v 25.68222 m 0,5.85413 v 45.51031 m 0,5.85412 v 45.51031 m 0,5.85413 v 45.51031 m 0,5.85413 v 45.51031 m 0,5.85413 v 45.51031 m 0,5.85412 v 45.51031 m 0,5.85413 v 25.68222 m 14.7976,-365.40519 v 25.68222 m 0,5.85413 v 45.51031 m 0,5.85412 v 45.51031 m 0,5.85413 v 45.51031 m 0,5.85413 v 45.51031 m 0,5.85413 v 45.51031 m 0,5.85412 v 45.51031 m 0,5.85413 v 25.68222 m 14.7976,-365.40519 v 25.68222 m 0,5.85413 v 45.51031 m 0,5.85412 v 45.51031 m 0,5.85413 v 45.51031 m 0,5.85413 v 45.51031 m 0,5.85413 v 45.51031 m 0,5.85412 v 45.51031 m 0,5.85413 v 25.68222 m 14.7976,-365.40519 v 25.68222 m 0,5.85413 v 45.51031 m 0,5.85412 v 45.51031 m 0,5.85413 v 45.51031 m 0,5.85413 v 45.51031 m 0,5.85413 v 45.51031 m 0,5.85412 v 45.51031 m 0,5.85413 v 25.68222 m 14.7975,-365.40519 v 25.68222 m 0,5.85413 v 45.51031 m 0,5.85412 v 45.51031 m 0,5.85413 v 45.51031 m 0,5.85413 v 45.51031 m 0,5.85413 v 45.51031 m 0,5.85412 v 45.51031 m 0,5.85413 v 25.68222 M 841.67177,526.8809 v 45.51031 m 0,5.85412 v 45.51032 m 0,5.85412 v 45.51031 m 0,5.85413 v 45.51031 m 0,5.85413 v 45.51031 m 0,5.85412 v 45.51032 m 0,5.85412 v 45.51031 m 14.7976,-353.69693 v 45.51031 m 0,5.85412 v 45.51032 m 0,5.85412 v 45.51031 m 0,5.85413 v 45.51031 m 0,5.85413 v 45.51031 m 0,5.85412 v 45.51032 m 0,5.85412 v 45.51031 M 871.26696,526.8809 v 45.51031 m 0,5.85412 v 45.51032 m 0,5.85412 v 45.51031 m 0,5.85413 v 45.51031 m 0,5.85413 v 45.51031 m 0,5.85412 v 45.51032 m 0,5.85412 v 45.51031 m 14.7976,-353.69693 v 45.51031 m 0,5.85412 v 45.51032 m 0,5.85412 v 45.51031 m 0,5.85413 v 45.51031 m 0,5.85413 v 45.51031 m 0,5.85412 v 45.51032 m 0,5.85412 v 45.51031 M 900.86214,526.8809 v 45.51031 m 0,5.85412 v 45.51032 m 0,5.85412 v 45.51031 m 0,5.85413 v 45.51031 m 0,5.85413 v 45.51031 m 0,5.85412 v 45.51032 m 0,5.85412 v 45.51031 m 14.7976,-353.69693 v 45.51031 m 0,5.85412 v 45.51032 m 0,5.85412 v 45.51031 m 0,5.85413 v 45.51031 m 0,5.85413 v 45.51031 m 0,5.85412 v 45.51032 m 0,5.85412 v 45.51031 M 930.45731,526.8809 v 45.51031 m 0,5.85412 v 45.51032 m 0,5.85412 v 45.51031 m 0,5.85413 v 45.51031 m 0,5.85413 v 45.51031 m 0,5.85412 v 45.51032 m 0,5.85412 v 45.51031 M 945.25498,526.8809 v 45.51031 m 0,5.85412 v 45.51032 m 0,5.85412 v 45.51031 m 0,5.85413 v 45.51031 m 0,5.85413 v 45.51031 m 0,5.85412 v 45.51032 m 0,5.85412 v 45.51031 M 960.05254,526.8809 v 45.51031 m 0,5.85412 v 45.51032 m 0,5.85412 v 45.51031 m 0,5.85413 v 45.51031 m 0,5.85413 v 45.51031 m 0,5.85412 v 45.51032 m 0,5.85412 v 45.51031 M 974.8501,526.8809 v 45.51031 m 0,5.85412 v 45.51032 m 0,5.85412 v 45.51031 m 0,5.85413 v 45.51031 m 0,5.85413 v 45.51031 m 0,5.85412 v 45.51032 m 0,5.85412 v 45.51031 M 989.64777,526.8809 v 45.51031 m 0,5.85412 v 45.51032 m 0,5.85412 v 45.51031 m 0,5.85413 v 45.51031 m 0,5.85413 v 45.51031 m 0,5.85412 v 45.51032 m 0,5.85412 v 45.51031 M 1004.4453,526.8809 v 45.51031 m 0,5.85412 v 45.51032 m 0,5.85412 v 45.51031 m 0,5.85413 v 45.51031 m 0,5.85413 v 45.51031 m 0,5.85412 v 45.51032 m 0,5.85412 v 45.51031 m 14.7976,-353.69693 v 45.51031 m 0,5.85412 v 45.51032 m 0,5.85412 v 45.51031 m 0,5.85413 v 45.51031 m 0,5.85413 v 45.51031 m 0,5.85412 v 45.51032 m 0,5.85412 v 45.51031 m 14.7976,-353.69693 v 45.51031 m 0,5.85412 v 45.51032 m 0,5.85412 v 45.51031 m 0,5.85413 v 45.51031 m 0,5.85413 v 45.51031 m 0,5.85412 v 45.51032 m 0,5.85412 v 45.51031 m 14.7976,-353.69693 v 45.51031 m 0,5.85412 v 45.51032 m 0,5.85412 v 45.51031 m 0,5.85413 v 45.51031 m 0,5.85413 v 45.51031 m 0,5.85412 v 45.51032 m 0,5.85412 v 45.51031 m 14.7976,-353.69693 v 45.51031 m 0,5.85412 v 45.51032 m 0,5.85412 v 45.51031 m 0,5.85413 v 45.51031 m 0,5.85413 v 45.51031 m 0,5.85412 v 45.51032 m 0,5.85412 v 45.51031 m 14.7976,-353.69693 v 45.51031 m 0,5.85412 v 45.51032 m 0,5.85412 v 45.51031 m 0,5.85413 v 45.51031 m 0,5.85413 v 45.51031 m 0,5.85412 v 45.51032 m 0,5.85412 v 45.51031 m 14.7976,-353.69693 v 45.51031 m 0,5.85412 v 45.51032 m 0,5.85412 v 45.51031 m 0,5.85413 v 45.51031 m 0,5.85413 v 45.51031 m 0,5.85412 v 45.51032 m 0,5.85412 v 45.51031 m 14.7976,-353.69693 v 45.51031 m 0,5.85412 v 45.51032 m 0,5.85412 v 45.51031 m 0,5.85413 v 45.51031 m 0,5.85413 v 45.51031 m 0,5.85412 v 45.51032 m 0,5.85412 v 45.51031 m 14.7976,-353.69693 v 45.51031 m 0,5.85412 v 45.51032 m 0,5.85412 v 45.51031 m 0,5.85413 v 45.51031 m 0,5.85413 v 45.51031 m 0,5.85412 v 45.51032 m 0,5.85412 v 45.51031 m 14.7975,-353.69693 v 45.51031 m 0,5.85412 v 45.51032 m 0,5.85412 v 45.51031 m 0,5.85413 v 45.51031 m 0,5.85413 v 45.51031 m 0,5.85412 v 45.51032 m 0,5.85412 v 45.51031">
      <desc
         id="desc1129-6">Hinge cut parameters: actual(requested)
cut length: 19.44 mm (20.00 mm)
gap length: 2.50 mm (2.50 mm)
separation distance: 1.96 mm (2.00 mm)</desc>
    </path>
    <rect
       id="rect83"
       width="53.510208"
       height="11.886742"
       x="-124.26294"
       y="516.62146"
       style="fill:none;stroke:#000000;stroke-width:0.52488655;stroke-miterlimit:4;stroke-dasharray:none;stroke-opacity:1" />
    <rect
       id="rect83-61"
       width="53.510208"
       height="11.886742"
       x="-124.26294"
       y="879.68439"
       style="fill:none;stroke:#000000;stroke-width:0.52488655;stroke-miterlimit:4;stroke-dasharray:none;stroke-opacity:1" />
    <rect
       id="rect83-8"
       width="53.510208"
       height="11.886742"
       x="1155.8118"
       y="516.62146"
       style="fill:none;stroke:#000000;stroke-width:0.52488655;stroke-miterlimit:4;stroke-dasharray:none;stroke-opacity:1" />
    <rect
       id="rect83-61-7"
       width="53.510208"
       height="11.886742"
       x="1155.8118"
       y="879.68439"
       style="fill:none;stroke:#000000;stroke-width:0.52488655;stroke-miterlimit:4;stroke-dasharray:none;stroke-opacity:1" />
    <path
       style="fill:none;stroke:#000000;stroke-width:2.35176301;stroke-miterlimit:4;stroke-dasharray:none;stroke-opacity:1"
       d="M 294.58008 -101.63477 L 294.58008 -92.115234 L 271.43555 -92.115234 A 86.477737 86.855698 0 0 0 267.81836 -92.296875 A 86.477737 86.855698 0 0 0 181.3418 -5.4414062 A 86.477737 86.855698 0 0 0 267.81836 81.414062 A 86.477737 86.855698 0 0 0 275.60156 80.994141 L 294.58008 80.994141 L 294.58008 90.050781 L 348.20117 90.050781 L 348.20117 80.994141 L 366.88672 80.994141 L 366.88672 90.640625 L 420.50781 90.640625 L 420.50781 80.994141 L 450.50195 80.994141 L 450.50195 90.640625 L 504.12305 90.640625 L 504.12305 80.994141 L 539.2793 80.994141 L 539.2793 90.324219 L 592.90039 90.324219 L 592.90039 80.994141 L 625.47656 80.994141 L 625.47656 90.640625 L 679.09766 90.640625 L 679.09766 80.994141 L 708.83789 80.994141 L 708.83789 90.640625 L 762.45898 90.640625 L 762.45898 80.994141 L 784.45508 80.994141 L 784.45508 90.640625 L 838.07617 90.640625 L 838.07617 80.994141 L 849.0625 80.994141 L 849.0625 80.591797 A 86.478722 86.478722 0 0 0 849.69922 80.623047 A 86.478722 86.478722 0 0 0 936.17773 -5.8554688 A 86.478722 86.478722 0 0 0 849.69922 -92.333984 A 86.478722 86.478722 0 0 0 843.56641 -92.115234 L 838.07617 -92.115234 L 838.07617 -101.04492 L 784.45508 -101.04492 L 784.45508 -92.115234 L 348.20117 -92.115234 L 348.20117 -101.63477 L 294.58008 -101.63477 z "
       id="rect966" />
    <path
       inkscape:connector-curvature="0"
       style="fill:none;stroke:#000000;stroke-width:1;stroke-miterlimit:4;stroke-dasharray:none;stroke-opacity:1"
       d="m 167.85105,259.1708 v 9.51954 h -23.14453 a 86.477737,86.855698 0 0 0 -3.61719,-0.18164 86.477737,86.855698 0 0 0 -86.476559,86.85546 86.477737,86.855698 0 0 0 86.476559,86.85547 86.477737,86.855698 0 0 0 7.7832,-0.41992 h 18.97852 v 9.05664 h 53.62109 v -9.05664 h 18.68555 v 9.64649 h 53.62109 v -9.64649 h 29.99414 v 9.64649 h 53.6211 v -9.64649 h 35.15625 v 9.33008 h 53.62109 v -9.33008 h 32.57617 v 9.64649 h 53.6211 v -9.64649 h 29.74026 v 9.64649 h 53.6211 v -9.64649 h 21.9961 v 9.64649 h 53.6211 v -9.64649 h 10.9863 v -0.40234 a 86.478722,86.478722 0 0 0 0.6367,0.0312 86.478722,86.478722 0 0 0 86.4785,-86.47852 86.478722,86.478722 0 0 0 -86.4785,-86.47851 86.478722,86.478722 0 0 0 -6.1328,0.21875 h -5.4902 v -8.92964 h -53.6211 v 8.92969 H 221.47214 v -9.51954 z"
       id="rect966-6" />
    <rect
       id="rect83-6-75"
       width="53.510208"
       height="11.886742"
       x="352.0874"
       y="518.46906"
       style="fill:none;stroke:#000000;stroke-width:0.52488655;stroke-miterlimit:4;stroke-dasharray:none;stroke-opacity:1" />
    <rect
       id="rect83-6-7-3"
       width="53.510208"
       height="11.886742"
       x="435.59937"
       y="518.46906"
       style="fill:none;stroke:#000000;stroke-width:0.52488655;stroke-miterlimit:4;stroke-dasharray:none;stroke-opacity:1" />
    <rect
       id="rect83-6-5-5"
       width="53.510208"
       height="11.886742"
       x="525.11163"
       y="518.46906"
       style="fill:none;stroke:#000000;stroke-width:0.52488655;stroke-miterlimit:4;stroke-dasharray:none;stroke-opacity:1" />
    <rect
       id="rect83-6-3-6"
       width="53.510208"
       height="11.886742"
       x="610.62372"
       y="518.46906"
       style="fill:none;stroke:#000000;stroke-width:0.52488655;stroke-miterlimit:4;stroke-dasharray:none;stroke-opacity:1" />
    <rect
       id="rect83-6-56-2"
       width="53.510208"
       height="11.886742"
       x="694.13568"
       y="518.46906"
       style="fill:none;stroke:#000000;stroke-width:0.52488655;stroke-miterlimit:4;stroke-dasharray:none;stroke-opacity:1" />
    <rect
       id="rect83-6-2-9"
       width="53.510208"
       height="11.886742"
       x="769.64716"
       y="518.46906"
       style="fill:none;stroke:#000000;stroke-width:0.52488655;stroke-miterlimit:4;stroke-dasharray:none;stroke-opacity:1" />
    <rect
       id="rect83-60-1"
       width="53.510208"
       height="11.886742"
       x="279.76065"
       y="518.14325"
       style="fill:none;stroke:#000000;stroke-width:0.52488655;stroke-miterlimit:4;stroke-dasharray:none;stroke-opacity:1" />
    <rect
       id="rect83-6-75-2"
       width="53.510208"
       height="11.886742"
       x="352.0874"
       y="876.46906"
       style="fill:none;stroke:#000000;stroke-width:0.52488655;stroke-miterlimit:4;stroke-dasharray:none;stroke-opacity:1" />
    <rect
       id="rect83-6-7-3-7"
       width="53.510208"
       height="11.886742"
       x="435.59933"
       y="876.46906"
       style="fill:none;stroke:#000000;stroke-width:0.52488655;stroke-miterlimit:4;stroke-dasharray:none;stroke-opacity:1" />
    <rect
       id="rect83-6-5-5-0"
       width="53.510208"
       height="11.886742"
       x="525.11157"
       y="876.46906"
       style="fill:none;stroke:#000000;stroke-width:0.52488655;stroke-miterlimit:4;stroke-dasharray:none;stroke-opacity:1" />
    <rect
       id="rect83-6-3-6-9"
       width="53.510208"
       height="11.886742"
       x="610.62378"
       y="876.46906"
       style="fill:none;stroke:#000000;stroke-width:0.52488655;stroke-miterlimit:4;stroke-dasharray:none;stroke-opacity:1" />
    <rect
       id="rect83-6-56-2-3"
       width="53.510208"
       height="11.886742"
       x="694.13574"
       y="876.46906"
       style="fill:none;stroke:#000000;stroke-width:0.52488655;stroke-miterlimit:4;stroke-dasharray:none;stroke-opacity:1" />
    <rect
       id="rect83-6-2-9-6"
       width="53.510208"
       height="11.886742"
       x="769.64722"
       y="876.46906"
       style="fill:none;stroke:#000000;stroke-width:0.52488655;stroke-miterlimit:4;stroke-dasharray:none;stroke-opacity:1" />
    <rect
       id="rect83-60-1-0"
       width="53.510208"
       height="11.886742"
       x="279.76065"
       y="876.14325"
       style="fill:none;stroke:#000000;stroke-width:0.52488655;stroke-miterlimit:4;stroke-dasharray:none;stroke-opacity:1" />
  </g>
</svg>
